<svg width="44" height="44" xmlns="http://www.w3.org/2000/svg" xml:space="preserve" version="1.0" enable-background="new 0 0 32 32">

 <g>
  <title>Layer 1</title>
  <path id="svg_1" d="m20.43637,24.65562l0,8.665c0,0.677 -0.549,1.226 -1.227,1.226s-1.227,-0.548 -1.227,-1.226l0,-5.707l-9.891,9.891c-0.238,0.239 -0.553,0.359 -0.867,0.359c-0.313,0 -0.625,-0.12 -0.865,-0.359c-0.479,-0.479 -0.479,-1.254 0,-1.733l9.891,-9.892l-5.707,0c-0.678,0 -1.227,-0.548 -1.227,-1.225c0,-0.676 0.549,-1.226 1.227,-1.226l8.666,0c0.678,0.002 1.227,0.551 1.227,1.227zm17.205,-18.16c-0.477,-0.479 -1.252,-0.479 -1.732,0l-10.026,10.027l0,-5.707c0,-0.677 -0.549,-1.225 -1.227,-1.225c-0.676,0 -1.225,0.548 -1.225,1.225l0,8.665c0,0.677 0.549,1.226 1.225,1.226l8.664,0c0.678,0 1.227,-0.549 1.227,-1.226s-0.549,-1.225 -1.227,-1.225l-5.705,0l10.026,-10.026c0.478,-0.479 0.478,-1.254 0,-1.734z"/>
 </g>
</svg>