<svg width="40" height="40" xmlns="http://www.w3.org/2000/svg" xml:space="preserve" version="1.0" enable-background="new 0 0 32 32">

 <g>
  <title>Layer 1</title>
  <path id="svg_1" d="m18.0745,21.7885c0.478,0.479 0.478,1.254 0,1.732l-9.89,9.891l5.705,0c0.678,0 1.225,0.549 1.225,1.227s-0.547,1.225 -1.225,1.225l-8.664,0c-0.677,-0.001 -1.226,-0.548 -1.226,-1.225l0,-8.666c0,-0.676 0.549,-1.225 1.226,-1.225c0.678,0 1.227,0.549 1.227,1.225l0,5.709l9.89,-9.893c0.239,-0.238 0.553,-0.359 0.865,-0.359c0.313,0 0.627,0.121 0.867,0.359zm16.699,-17.652l-8.664,0c-0.678,0 -1.226,0.547 -1.226,1.225s0.548,1.227 1.226,1.227l5.705,0l-10.025,10.026c-0.479,0.479 -0.479,1.254 0,1.732c0.478,0.479 1.253,0.479 1.732,0l10.026,-10.027l0,5.707c0,0.676 0.549,1.225 1.227,1.225c0.677,0 1.226,-0.549 1.226,-1.225l0,-8.666c-0.001,-0.677 -0.55,-1.224 -1.227,-1.224z"/>
 </g>
</svg>